<?xml version="1.0" encoding="utf-8"?>
<!-- Generator: Adobe Illustrator 24.2.1, SVG Export Plug-In . SVG Version: 6.00 Build 0)  -->
<svg version="1.1" id="Layer_1" xmlns="http://www.w3.org/2000/svg" xmlns:xlink="http://www.w3.org/1999/xlink" x="0px" y="0px"
	 viewBox="0 0 500 500" style="enable-background:new 0 0 500 500;" xml:space="preserve">
<style type="text/css">
	.st0{fill:#339933;}
	.st1{fill:#F0F0F0;}
</style>
<rect x="-144" y="-144" class="st0" width="810" height="783"/>
<path class="st1" d="M381.3,118.7c-10.4-10.4-23.6-17-38.1-19.1c-21.1-3-42,4-57.1,19.1c-4.2,4.2-4.2,11,0,15.3
	c0.2,0.2,0.5,0.3,0.8,0.5c0.2,0.2,0.3,0.5,0.5,0.7l31.1,31.1L157.8,327l-24.7-24.7L269.4,166c4.2-4.2,4.2-11,0-15.2
	c-4.2-4.2-11-4.2-15.2,0L110.2,294.6c0,0,0,0,0,0l-8,8c-1,1-1.8,2.2-2.3,3.5c-0.5,1.3-0.8,2.7-0.8,4.1v79.9c0,6,4.8,10.8,10.8,10.8
	h80c2.9,0,5.6-1.1,7.6-3.2l183.9-183.9C407.5,187.7,407.5,145,381.3,118.7z M340.2,121c9.9,1.4,18.8,5.9,25.9,12.9
	c15.2,15.2,17.3,38.5,6.6,56.1l-31.3-31.4l0,0l0,0l-31.4-31.4C318.8,121.8,329.4,119.5,340.2,121z M120.6,379.4v-59.1l29.6,29.6
	c0,0,0,0,0,0l0,0l29.5,29.5H120.6z M173,342.2l160.6-160.7l24.7,24.7L197.8,367L173,342.2z"/>
</svg>
